<svg aria-hidden="true" style="position: absolute; width: 0; height: 0; overflow: hidden;" version="1.1" xmlns="http://www.w3.org/2000/svg" xmlns:xlink="http://www.w3.org/1999/xlink">
<defs>
<symbol id="icon-footer_heart" viewBox="0 0 32 32">
<path fill="#ff6b08" style="fill: var(--color1, #ff6b08)" d="M16 30.144l-2.24-2.218c-8.32-7.287-13.76-12.198-13.76-18.218 0-4.911 3.84-8.713 8.8-8.713 2.72 0 5.44 1.267 7.2 3.327 1.76-2.059 4.48-3.327 7.2-3.327 4.96 0 8.8 3.802 8.8 8.713 0 6.020-5.44 10.931-13.76 18.218l-2.24 2.218z"></path>
</symbol>
<symbol id="icon-close-model-footer" viewBox="0 0 32 32">
<path d="M8.533 8.533l14.933 14.933"></path>
<path  d="M8.533 23.467l14.933-14.933"></path>
</symbol>
<symbol id="icon-arrow-right" viewBox="0 0 32 32">
<path stroke-linejoin="round" stroke-linecap="round" stroke-miterlimit="4" stroke-width="2.6667" d="M6.667 16h18.667"></path>
<path stroke-linejoin="round" stroke-linecap="round" stroke-miterlimit="4" stroke-width="2.6667" d="M16 25.334l9.333-9.333-9.333-9.333"></path>
</symbol>
<symbol id="icon-arrow-left" viewBox="0 0 32 32">
<path stroke-linejoin="round" stroke-linecap="round" stroke-miterlimit="4" stroke-width="2.6667" d="M25.333 16h-18.667"></path>
<path stroke-linejoin="round" stroke-linecap="round" stroke-miterlimit="4" stroke-width="2.6667" d="M16 25.334l-9.333-9.333 9.333-9.333"></path>
</symbol>
<symbol id="icon-linkedin" viewBox="0 0 32 32">
<path d="M17.329 14.372v-0.047c-0.010 0.016-0.023 0.031-0.031 0.047h0.031z"></path>
<path d="M0 0v32h32v-32h-32zM9.953 26.585h-4.748v-14.284h4.748v14.284zM7.579 10.352h-0.031c-1.593 0-2.625-1.097-2.625-2.469 0-1.402 1.062-2.468 2.687-2.468s2.624 1.066 2.655 2.468c0 1.371-1.030 2.469-2.686 2.469zM27.077 26.585h-4.749v-7.642c0-1.919-0.686-3.23-2.405-3.23-1.313 0-2.093 0.882-2.436 1.737-0.125 0.305-0.158 0.73-0.158 1.158v7.977h-4.75c0 0 0.064-12.944 0-14.284h4.75v2.024c0.631-0.971 1.757-2.359 4.28-2.359 3.125 0 5.468 2.041 5.468 6.428v8.191z"></path>
</symbol>
<symbol id="icon-telegram" viewBox="0 0 32 32">
<path d="M0 0v32h32v-32h-32zM27.064 7.081l-3.76 18.084c-0.089 0.427-0.589 0.62-0.942 0.364l-5.132-3.726c-0.312-0.226-0.736-0.214-1.035 0.029l-2.846 2.32c-0.33 0.27-0.828 0.12-0.954-0.287l-1.976-6.354-5.105-1.905c-0.519-0.194-0.523-0.926-0.006-1.126l20.95-8.082c0.444-0.172 0.902 0.217 0.806 0.684z"></path>
<path d="M22.053 10.351l-9.977 6.144c-0.382 0.236-0.562 0.698-0.439 1.13l1.079 3.79c0.077 0.269 0.466 0.241 0.504-0.036l0.28-2.078c0.053-0.391 0.24-0.752 0.529-1.021l8.233-7.653c0.154-0.143-0.030-0.385-0.21-0.275z"></path>
</symbol>
<symbol id="icon-github" viewBox="0 0 32 32">
<path d="M15.988 2.384c-7.728-0.003-13.988 6.253-13.988 13.975 0 6.106 3.916 11.297 9.369 13.203 0.734 0.184 0.622-0.337 0.622-0.694v-2.422c-4.241 0.497-4.412-2.309-4.697-2.778-0.575-0.981-1.934-1.231-1.528-1.7 0.966-0.497 1.95 0.125 3.091 1.809 0.825 1.222 2.434 1.016 3.25 0.813 0.178-0.734 0.559-1.391 1.084-1.9-4.394-0.788-6.225-3.469-6.225-6.656 0-1.547 0.509-2.969 1.509-4.116-0.638-1.891 0.059-3.509 0.153-3.75 1.816-0.162 3.703 1.3 3.85 1.416 1.031-0.278 2.209-0.425 3.528-0.425 1.325 0 2.506 0.153 3.547 0.434 0.353-0.269 2.103-1.525 3.791-1.372 0.091 0.241 0.772 1.822 0.172 3.688 1.012 1.15 1.528 2.584 1.528 4.134 0 3.194-1.844 5.878-6.25 6.653 0.735 0.723 1.191 1.729 1.191 2.841 0 0.001 0 0.002 0 0.003v-0 3.516c0.025 0.281 0 0.559 0.469 0.559 5.534-1.866 9.519-7.094 9.519-13.253 0-7.725-6.262-13.978-13.984-13.978z"></path>
</symbol>
<symbol id="icon-close-model-footer" viewBox="0 0 32 32">
<path  d="M8.533 8.533l14.933 14.933"></path>
<path  d="M8.533 23.467l14.933-14.933"></path>
</symbol>
</defs>
</svg>