<svg aria-hidden="true" style="position:absolute;width:0;height:0;overflow:hidden" xmlns="http://www.w3.org/2000/svg">
<defs>
<symbol id="icon" viewBox="0 0 26 32">
<path d="M15.037.028c-1.85.115-3.672.547-5.362 1.272-.71.302-2.043 1.017-2.463 1.32l-.478.34c-.447.315-.915.688-1.303 1.03-.407.36-.938.86-.995.938a7.248 7.248 0 0 1-.287.327 15.967 15.967 0 0 0-4.06 12.42 15.914 15.914 0 0 0 4.588 9.622 15.898 15.898 0 0 0 5.787 3.715c1.015.378 2.162.67 3.26.825.853.12 1.275.148 2.25.148.935.003 1.298-.02 2.025-.113.212-.027.455-.058.538-.063.082-.008.302-.047.488-.087 1.768-.4 2.742-.733 4.063-1.385a14.84 14.84 0 0 0 2.5-1.53c.652-.49.712-.558.593-.677-.043-.043-.108-.05-.582-.063-4.355-.128-8.465-2.098-11.363-5.442-2.96-3.42-4.293-8.015-3.633-12.525.545-3.735 2.422-7.135 5.31-9.623.29-.25.288-.245.288-.33 0-.13-.055-.147-.465-.145a20.44 20.44 0 0 0-.697.025z"/>
</symbol></defs></svg>